# xmcd
#
# Track frame offsets:
#	150
#	17941
#	34060
#	48166
#	63857
#	81272
#	96674
#	112016
#	122517
#	135038
#	151725
#	164765
#
# Disc length: 2342 seconds
#
# Revision: 1
# Processed by: cddbd v1.5.2PL0 Copyright (c) Steve Scherf et al.
# Submitted via: audiograbber 1.83.01
#
DISCID=9609240c
DTITLE=Gordon Reeves - the rising tide
DYEAR=2009
DGENRE=newcomer
TTITLE0=01 The rising tide
TTITLE1=Icebreaker
TTITLE2=03 Let me go
TTITLE3=04 Old desire blues
TTITLE4=05 Another year
TTITLE5=06 Now that you are leaving
TTITLE6=07 Why is it taking so long
TTITLE7=08 Please be
TTITLE8=09 Goodnight sweet dreams
TTITLE9=10 Till the angels appear
TTITLE10=11 Dance back to the dark
TTITLE11=12 The auld triangle
EXTD=läuft
EXTT0=
EXTT1=
EXTT2=
EXTT3=
EXTT4=
EXTT5=
EXTT6=
EXTT7=
EXTT8=
EXTT9=
EXTT10=
EXTT11=
PLAYORDER=
